<?xml version="1.0" encoding="UTF-8"?>
<svg id="Layer_1" data-name="Layer 1" xmlns="http://www.w3.org/2000/svg" viewBox="0 0 135.36 100">
  <g id="Layer_1-2" data-name="Layer 1-2">
    <g id="_2704530107312" data-name=" 2704530107312">
      <path d="m135.35,65.47l-.32.34c-.1.1-.19.2-.29.3-8.15,8.15-21.37,8.15-29.53,0-8.15-8.15-8.15-21.37,0-29.53,8.15-8.15,21.37-8.15,29.53,0l.62.62-3.68,3.68-.62-.62c-6.12-6.12-16.04-6.12-22.16,0-6.12,6.12-6.12,16.04,0,22.16,6.12,6.12,16.04,6.12,22.16,0l.62-.62,3.67,3.67h0Zm-35.15-1.24h0l1.24,1.24-.32.34c-.1.1-.19.2-.29.3-8.15,8.15-21.37,8.15-29.53,0-8.15-8.15-8.15-21.37,0-29.53,8.15-8.15,21.37-8.15,29.53,0l.62.62-3.68,3.68-.62-.62c-6.12-6.12-16.04-6.12-22.16,0-6.12,6.12-6.12,16.04,0,22.16s16.04,6.12,22.16,0l.62-.62,2.43,2.43h0Zm-60.81-7.05v15.03h-5.2V30.46h17.75c7.08,0,12.63,6.44,12.63,13.33,0,4.62-2.22,9.25-6.22,11.7-.34.21-.68.4-1.04.57-1.57.78-3.27,1.11-5.02,1.11h-12.89Zm0-21.52v16.31h12.89c4.39,0,7.07-4.13,7.07-8.19s-3.22-8.13-7.42-8.13h-12.54,0Z" style="fill-rule: evenodd; stroke-width: 0px;"/>
      <g>
        <path d="m56.62,8.88c.21.03.41.07.62.11l-.51,3.17c-.21-.04-.41-.07-.62-.11-5.42-.87-10.76-.57-15.75.73.02-.09.04-.19.06-.28.17-1.06-.14-2.08-.78-2.85,5.39-1.39,11.14-1.71,16.98-.77h0Zm-21.94,5.86c-2.54,1.11-4.95,2.48-7.19,4.1-7.97,5.76-13.75,14.57-15.43,25.05-1.59,9.88.74,19.49,5.85,27.24-.15.03-.3.06-.44.08-1.15.21-1.68,1.35-1.92,2.16-5.75-8.48-8.41-19.08-6.65-29.99,1.83-11.35,8.08-20.89,16.72-27.14,2.4-1.73,4.98-3.21,7.7-4.41-.03,1.15.5,2.22,1.37,2.9h0Zm-9.31,64.77c5.13,4.29,11.45,7.29,18.53,8.44,2.16.35,4.31.51,6.43.49.06,1.24.13,2.51.17,3.21-2.34.03-4.72-.15-7.12-.53-7.73-1.24-14.61-4.54-20.19-9.24l2.17-2.37h0Z" style="stroke-width: 0px;"/>
        <path d="m57.94.64c5.81.93,11.23,2.84,16.11,5.52l-1.59,2.79c-4.56-2.49-9.61-4.26-15.03-5.14C38.39.75,20.19,9.64,10.47,24.96c-.32-1.1-1.15-2.02-2.27-2.41C18.69,6.6,37.88-2.58,57.94.64h0ZM5.79,34.67c-.87,2.53-1.54,5.16-1.98,7.9-3.14,19.5,6.27,38.13,22.27,47.65-.78.5-1.35,1.31-1.5,2.3-.03.17-.04.35-.04.51C7.37,82.87-2.72,62.93.64,42.06c.48-2.96,1.2-5.81,2.15-8.55l3,1.16h0Zm25.47,58.21c3.54,1.54,7.32,2.67,11.3,3.31,11.81,1.9,23.29-.8,32.63-6.77.64.89,1.3,1.8,1.88,2.6-10.01,6.46-22.34,9.38-35.03,7.34-4.29-.69-8.37-1.91-12.17-3.58.69-.5,1.2-1.28,1.35-2.19.04-.24.05-.48.04-.71h0Z" style="stroke-width: 0px;"/>
        <path d="m19.81,69.97c-2.82-.45-5.48,1.47-5.93,4.29-.45,2.82,1.47,5.48,4.29,5.93,2.82.45,5.48-1.47,5.93-4.29.45-2.82-1.47-5.48-4.29-5.93Zm-.47,2.94c-1.2-.19-2.32.62-2.52,1.82-.19,1.2.62,2.32,1.82,2.52,1.2.19,2.32-.62,2.52-1.82.19-1.2-.62-2.32-1.82-2.52Z" style="fill-rule: evenodd; stroke-width: 0px;"/>
        <path d="m76.36,3.93c-2.82-.45-5.48,1.47-5.93,4.29-.45,2.82,1.47,5.48,4.29,5.93s5.48-1.47,5.93-4.29c.45-2.82-1.47-5.48-4.29-5.93h0Zm-.47,2.94c-1.2-.19-2.32.62-2.52,1.82-.19,1.2.62,2.32,1.82,2.52,1.2.19,2.32-.62,2.52-1.82.19-1.2-.62-2.32-1.82-2.52Z" style="fill-rule: evenodd; stroke-width: 0px;"/>
        <path d="m54.5,84.49c-2.82-.45-5.48,1.47-5.93,4.29-.45,2.82,1.47,5.48,4.29,5.93,2.82.45,5.48-1.47,5.93-4.29.45-2.82-1.47-5.48-4.29-5.93h0Zm-.47,2.94c-1.2-.19-2.32.62-2.52,1.82-.19,1.2.62,2.32,1.82,2.52,1.2.19,2.32-.62,2.52-1.82.19-1.2-.62-2.32-1.82-2.52Z" style="fill-rule: evenodd; stroke-width: 0px;"/>
        <path d="m8.43,21.28c-2.82-.45-5.48,1.47-5.93,4.29-.45,2.82,1.47,5.48,4.29,5.93,2.82.45,5.48-1.47,5.93-4.29.45-2.82-1.47-5.48-4.29-5.93h0Zm-.47,2.94c-1.2-.19-2.32.62-2.52,1.82-.19,1.2.62,2.32,1.82,2.52,1.2.19,2.32-.62,2.52-1.82.19-1.2-.62-2.32-1.82-2.52Z" style="fill-rule: evenodd; stroke-width: 0px;"/>
        <path d="m28.74,87.94c-2.82-.45-5.48,1.47-5.93,4.29s1.47,5.48,4.29,5.93c2.82.45,5.48-1.47,5.93-4.29.45-2.82-1.47-5.48-4.29-5.93h0Zm-.47,2.94c-1.2-.19-2.32.62-2.52,1.82-.19,1.2.62,2.32,1.82,2.52,1.2.19,2.32-.62,2.52-1.82.19-1.2-.62-2.32-1.82-2.52Z" style="fill-rule: evenodd; stroke-width: 0px;"/>
        <path d="m37.8,7.08c-2.82-.45-5.48,1.47-5.93,4.29-.45,2.82,1.47,5.48,4.29,5.93,2.82.45,5.48-1.47,5.93-4.29s-1.47-5.48-4.29-5.93h0Zm-.47,2.94c-1.2-.19-2.32.62-2.52,1.82-.19,1.2.62,2.32,1.82,2.52s2.32-.62,2.52-1.82c.19-1.2-.62-2.32-1.82-2.52Z" style="fill-rule: evenodd; stroke-width: 0px;"/>
      </g>
    </g>
  </g>
</svg>