<?xml version="1.0" encoding="UTF-8"?>
<svg id="Layer_1" data-name="Layer 1" xmlns="http://www.w3.org/2000/svg" viewBox="0 0 516.67 378.75">
  <g id="Layer_1-2" data-name="Layer 1-2">
    <g id="_2704530107312" data-name=" 2704530107312">
      <path d="m516.64,247.97l-1.22,1.27c-.36.38-.73.75-1.1,1.12-30.88,30.88-80.95,30.88-111.83,0-30.88-30.88-30.88-80.95,0-111.83,30.88-30.88,80.95-30.88,111.83,0l2.35,2.35-13.94,13.94-2.35-2.35c-23.18-23.18-60.77-23.18-83.95,0s-23.18,60.77,0,83.95c23.18,23.18,60.77,23.18,83.95,0l2.35-2.36,13.9,13.9h0Zm-133.14-4.69h0l4.69,4.68-1.22,1.27c-.36.38-.73.75-1.1,1.12-30.88,30.88-80.95,30.88-111.83,0-30.88-30.88-30.88-80.95,0-111.83,30.88-30.88,80.95-30.88,111.83,0l2.35,2.35-13.94,13.94-2.35-2.36c-23.18-23.18-60.77-23.18-83.95,0-23.18,23.18-23.18,60.77,0,83.95s60.77,23.18,83.95,0l2.35-2.36,9.22,9.22h0v.02Zm-230.31-26.7v56.94h-19.71V115.37h67.21c26.83,0,47.82,24.41,47.82,50.5,0,17.48-8.42,35.05-23.54,44.32-1.28.78-2.59,1.51-3.93,2.17-5.95,2.94-12.4,4.22-19.01,4.22h-48.84Zm0-81.5v61.79h48.83c16.61,0,26.76-15.63,26.76-31.01s-12.21-30.78-28.1-30.78h-47.49,0Z" style="fill-rule: evenodd; stroke-width: 0px;"/>
      <g>
        <path d="m214.43,33.64c.78.13,1.57.26,2.35.4l-1.93,12c-.78-.14-1.56-.27-2.35-.4-20.53-3.3-40.74-2.14-59.66,2.77.09-.35.16-.71.22-1.07.65-4.01-.54-7.89-2.94-10.79,20.4-5.25,42.19-6.48,64.31-2.92h0Zm-83.1,22.21c-9.63,4.2-18.76,9.41-27.24,15.54-30.19,21.82-52.06,55.17-58.45,94.86-6.02,37.43,2.8,73.83,22.14,103.17-.57.11-1.13.21-1.67.31-4.34.78-6.36,5.1-7.28,8.18-21.78-32.11-31.84-72.26-25.19-113.59,6.92-43,30.61-79.13,63.33-102.78,9.09-6.57,18.87-12.17,29.18-16.69-.12,4.36,1.88,8.42,5.17,11h0Zm-35.25,245.3c19.43,16.25,43.35,27.63,70.17,31.95,8.19,1.32,16.33,1.92,24.36,1.86.24,4.68.5,9.5.65,12.15-8.88.1-17.88-.56-26.95-2.02-29.26-4.71-55.33-17.18-76.46-34.98l8.22-8.97h.01Z" style="stroke-width: 0px;"/>
        <path d="m219.45,2.43c22.02,3.54,42.54,10.76,61.03,20.91l-6.04,10.55c-17.26-9.44-36.39-16.15-56.92-19.46C145.4,2.83,76.46,36.51,39.67,94.52c-1.2-4.18-4.36-7.64-8.58-9.14C70.8,25.01,143.48-9.79,219.45,2.43h0ZM21.94,131.32c-3.31,9.57-5.84,19.56-7.5,29.91-11.88,73.86,23.73,144.4,84.33,180.47-2.94,1.89-5.1,4.98-5.7,8.71-.11.66-.16,1.31-.16,1.95C27.93,313.87-10.29,238.36,2.43,159.29c1.8-11.2,4.55-22.01,8.16-32.37l11.35,4.4h0Zm96.48,220.46c13.39,5.84,27.72,10.1,42.8,12.53,44.72,7.2,88.23-3.03,123.6-25.66,2.41,3.38,4.92,6.83,7.13,9.86-37.9,24.46-84.62,35.54-132.66,27.81-16.26-2.62-31.7-7.23-46.11-13.56,2.63-1.91,4.54-4.83,5.1-8.3.15-.9.19-1.8.15-2.68h-.01Z" style="stroke-width: 0px;"/>
        <path d="m75.04,265.01c-10.69-1.72-20.74,5.55-22.46,16.23-1.72,10.69,5.55,20.74,16.23,22.46,10.69,1.72,20.74-5.55,22.46-16.23,1.72-10.69-5.55-20.74-16.23-22.46Zm-1.79,11.14c-4.53-.73-8.8,2.35-9.53,6.89-.73,4.53,2.35,8.8,6.89,9.53,4.53.73,8.8-2.35,9.53-6.89.73-4.53-2.35-8.8-6.89-9.53Z" style="fill-rule: evenodd; stroke-width: 0px;"/>
        <path d="m289.23,14.87c-10.69-1.72-20.74,5.55-22.46,16.24-1.72,10.69,5.55,20.74,16.24,22.46s20.74-5.55,22.46-16.23c1.72-10.69-5.55-20.74-16.23-22.46h0Zm-1.79,11.14c-4.53-.73-8.8,2.35-9.53,6.89-.73,4.53,2.35,8.8,6.89,9.53,4.53.73,8.8-2.35,9.53-6.89.73-4.53-2.35-8.8-6.89-9.53Z" style="fill-rule: evenodd; stroke-width: 0px;"/>
        <path d="m206.4,320.01c-10.69-1.72-20.74,5.55-22.46,16.24-1.72,10.69,5.55,20.74,16.23,22.46,10.69,1.72,20.74-5.55,22.46-16.23,1.72-10.69-5.55-20.74-16.24-22.46h0Zm-1.79,11.14c-4.53-.73-8.8,2.35-9.53,6.89-.73,4.53,2.35,8.8,6.89,9.53,4.53.73,8.8-2.35,9.53-6.89.73-4.53-2.35-8.8-6.89-9.53Z" style="fill-rule: evenodd; stroke-width: 0px;"/>
        <path d="m31.94,80.59c-10.69-1.72-20.74,5.55-22.46,16.23-1.72,10.69,5.55,20.74,16.24,22.46,10.69,1.72,20.74-5.55,22.46-16.24,1.72-10.69-5.55-20.74-16.23-22.46h-.01Zm-1.79,11.14c-4.53-.73-8.8,2.35-9.53,6.89-.73,4.53,2.35,8.8,6.89,9.53,4.53.73,8.8-2.35,9.53-6.89.73-4.53-2.35-8.8-6.89-9.53Z" style="fill-rule: evenodd; stroke-width: 0px;"/>
        <path d="m108.84,333.06c-10.69-1.72-20.74,5.55-22.46,16.24s5.55,20.74,16.23,22.46c10.69,1.72,20.74-5.55,22.46-16.23,1.72-10.69-5.55-20.74-16.23-22.46h0Zm-1.79,11.14c-4.53-.73-8.8,2.35-9.53,6.89-.73,4.53,2.35,8.8,6.89,9.53,4.53.73,8.8-2.35,9.53-6.89.73-4.53-2.35-8.8-6.89-9.53Z" style="fill-rule: evenodd; stroke-width: 0px;"/>
        <path d="m143.18,26.83c-10.69-1.72-20.74,5.55-22.46,16.23-1.72,10.69,5.55,20.74,16.23,22.46,10.68,1.72,20.74-5.55,22.46-16.24s-5.55-20.74-16.23-22.46h0Zm-1.79,11.14c-4.53-.73-8.8,2.35-9.53,6.89-.73,4.53,2.35,8.8,6.89,9.53s8.8-2.35,9.53-6.89c.73-4.53-2.35-8.8-6.89-9.53Z" style="fill-rule: evenodd; stroke-width: 0px;"/>
      </g>
    </g>
  </g>
</svg>